HIERARCHY
ROOT Hips
{
	OFFSET 0.00 0.00 0.00
	CHANNELS 6 Xposition Yposition Zposition Xrotation Yrotation Zrotation
	JOINT Spine
	{
		OFFSET 0.00000 4.88528 0.00000
		CHANNELS 3 Xrotation Yrotation Zrotation
		JOINT Head
		{
			OFFSET 0.00000 16.49416 0.00000
			CHANNELS 3 Xrotation Yrotation Zrotation
			End Site
			{
				OFFSET 0.00000 4.52755 0.00000
			}
		}
		JOINT LeftShoulder
		{
			OFFSET 0.00000 10.66345 0.00000
			CHANNELS 3 Xrotation Yrotation Zrotation
			JOINT LeftArm
			{
				OFFSET 7.53191 0.00000 0.00000
				CHANNELS 3 Xrotation Yrotation Zrotation
				JOINT LeftForeArm
				{
					OFFSET 10.22920 0.00000 0.00000
					CHANNELS 3 Yrotation Zrotation Xrotation
					JOINT LeftHand
					{
						OFFSET 8.67349 0.00000 0.00000
						CHANNELS 3 Xrotation Yrotation Zrotation
						JOINT LeftHandThumb1
						{
							OFFSET 0.00000 0.00000 0.00000
							CHANNELS 3 Xrotation Zrotation Yrotation
							End Site
							{
								OFFSET 0.00000 0.00000 3.93700
							}
						}
						End Site
						{
							OFFSET 3.93700 0.00000 0.00000
						}
					}
				}
			}
		}
		JOINT RightShoulder
		{
			OFFSET 0.00000 10.66345 0.00000
			CHANNELS 3 Xrotation Yrotation Zrotation
			JOINT RightArm
			{
				OFFSET -7.53191 0.00000 0.00000
				CHANNELS 3 Xrotation Yrotation Zrotation
				JOINT RightForeArm
				{
					OFFSET -10.22920 0.00000 0.00000
					CHANNELS 3 Yrotation Zrotation Xrotation
					JOINT RightHand
					{
						OFFSET -8.67349 0.00000 0.00000
						CHANNELS 3 Xrotation Yrotation Zrotation
						JOINT RightHandThumb1
						{
							OFFSET 0.00000 0.00000 0.00000
							CHANNELS 3 Xrotation Zrotation Yrotation
							End Site
							{
								OFFSET 0.00000 0.00000 3.93700
							}
						}
						End Site
						{
							OFFSET -3.93700 0.00000 0.00000
						}
					}
				}
			}
		}
	}
	JOINT LeftUpLeg
	{
		OFFSET 2.67219 0.00000 0.00000
		CHANNELS 3 Xrotation Yrotation Zrotation
		JOINT LeftLeg
		{
			OFFSET 0.00000 -16.26339 0.00000
			CHANNELS 3 Xrotation Yrotation Zrotation
			JOINT LeftFoot
			{
				OFFSET 0.00000 -14.32816 0.00000
				CHANNELS 3 Xrotation Yrotation Zrotation
				JOINT LeftToeBase
				{
					OFFSET 0.00000 -1.30219 4.85985
					CHANNELS 3 Xrotation Yrotation Zrotation
					End Site
					{
						OFFSET 0.00000 0.00000 2.95275
					}
				}
			}
		}
	}
	JOINT RightUpLeg
	{
		OFFSET -2.67219 0.00000 0.00000
		CHANNELS 3 Xrotation Yrotation Zrotation
		JOINT RightLeg
		{
			OFFSET 0.00000 -16.26339 0.00000
			CHANNELS 3 Xrotation Yrotation Zrotation
			JOINT RightFoot
			{
				OFFSET 0.00000 -14.32816 0.00000
				CHANNELS 3 Xrotation Yrotation Zrotation
				JOINT RightToeBase
				{
					OFFSET 0.00000 -1.30219 4.85985
					CHANNELS 3 Xrotation Yrotation Zrotation
					End Site
					{
						OFFSET 0.00000 0.00000 2.95275
					}
				}
			}
		}
	}
}
MOTION
Frames: 15
Frame Time: 0.008333
 -0.8722 32.7961 -10.8154 14.2711 -1.0826 -1.9336 -18.9305 -5.4577 -0.1825 12.2626 -3.2548 0.5012 32.3482 33.5256 19.6122 -74.3244 -3.5224 -29.2284 3.3606 0.0000 6.7268 0.3690 -4.1611 5.0727 33.1476 -0.0000 26.2537 -5.8837 -4.8215 -31.2139 -20.9079 0.7718 38.1302 0.6455 -0.0000 9.9125 -0.0438 2.2570 1.1125 32.8623 0.0000 -24.3270 -5.1291 -1.8479 3.4569 -5.0066 -0.0000 -0.0000 -1.5446 14.7184 -15.2722 -7.7323 -0.0000 -0.0000 -2.5324 1.8261 2.3463 -7.6876 0.0000 -0.0000 -2.9682 -16.9438 3.9229 -1.9275 -0.0000 -0.0000
 -0.8672 32.7891 -10.8239 14.2720 -1.0626 -1.8977 -18.9041 -5.4782 -0.2229 12.2929 -3.2508 0.4905 32.3789 33.5144 19.5802 -74.1613 -3.6934 -29.1929 3.4018 0.0000 6.5718 0.3825 -4.1999 5.2085 33.1476 -0.0000 26.2537 -5.8540 -4.8055 -31.2091 -20.9404 0.7504 38.1118 0.6432 -0.0000 10.0416 -0.0312 2.2349 0.7993 32.8623 0.0000 -24.3270 -5.1288 -1.8603 3.4147 -5.0409 0.0000 0.0000 -1.5691 14.7077 -15.2701 -7.7525 -0.0000 0.0000 -2.5495 1.7881 2.3084 -7.6629 -0.0000 0.0000 -3.1134 -16.9384 3.8330 -1.8147 0.0000 0.0000
 -0.8612 32.7821 -10.8332 14.2815 -1.0486 -1.8587 -18.8824 -5.4791 -0.2674 12.3054 -3.2774 0.4917 32.4198 33.5170 19.5593 -74.1724 -3.7337 -29.1836 3.3646 0.0000 6.5665 0.3861 -4.2167 5.2364 33.1476 -0.0000 26.2537 -5.8595 -4.7980 -31.2119 -21.0021 0.6951 38.1021 0.6409 -0.0000 10.2951 -0.0415 2.4142 0.9857 32.8623 0.0000 -24.3270 -5.1376 -1.8543 3.3601 -5.0822 0.0000 0.0000 -1.5979 14.7302 -15.2693 -7.6708 0.0000 -0.0000 -2.5628 1.7807 2.2661 -7.6727 -0.0000 0.0000 -3.2155 -16.9473 3.7292 -1.8347 0.0000 -0.0000
 -0.8575 32.7754 -10.8422 14.2797 -1.0231 -1.8389 -18.8454 -5.4935 -0.3037 12.3158 -3.2918 0.5055 32.4348 33.5270 19.5615 -74.2112 -3.7395 -29.1910 3.3197 0.0000 6.5841 0.3847 -4.2075 5.2292 33.1476 -0.0000 26.2537 -5.8821 -4.7933 -31.2124 -20.9783 0.7073 38.1133 0.6519 -0.0000 10.2933 -0.0400 2.2969 0.9989 32.8623 0.0000 -24.3270 -5.1318 -1.8514 3.3346 -5.1247 -0.0000 0.0000 -1.6191 14.6897 -15.2927 -7.7166 -0.0000 0.0000 -2.5684 1.7471 2.2423 -7.6691 -0.0000 -0.0000 -3.3178 -17.0108 3.6704 -1.8855 -0.0000 0.0000
 -0.8533 32.7697 -10.8514 14.2905 -0.9958 -1.8171 -18.8272 -5.5139 -0.3323 12.3351 -3.3141 0.4924 32.4976 33.5415 19.5095 -74.0936 -3.8693 -29.1876 3.2637 0.0000 6.4378 0.3616 -4.0176 5.1473 33.1476 -0.0000 26.2537 -5.8465 -4.8148 -31.2138 -21.0115 0.7212 38.1255 0.6667 -0.0000 10.2903 -0.0386 2.3273 0.9503 32.8623 0.0000 -24.3270 -5.1318 -1.8899 3.3071 -5.1748 0.0000 0.0000 -1.6386 14.6957 -15.2988 -7.6174 -0.0000 0.0000 -2.5767 1.7350 2.2158 -7.6901 0.0000 0.0000 -3.3989 -17.0238 3.6044 -1.8201 0.0000 -0.0000
 -0.8490 32.7649 -10.8617 14.3049 -0.9642 -1.8086 -18.8089 -5.5247 -0.3495 12.3487 -3.3458 0.4906 32.4992 33.5260 19.5126 -74.2457 -3.8201 -29.2103 3.2460 0.0000 6.6745 0.3665 -4.0055 5.2325 33.1476 -0.0000 26.2537 -5.8517 -4.8221 -31.2357 -21.1414 0.6177 38.1649 0.6651 -0.0000 10.4260 -0.0367 2.3429 0.8984 32.8623 0.0000 -24.3270 -5.1453 -1.9324 3.2918 -5.2112 0.0000 0.0000 -1.6538 14.6994 -15.2817 -7.6224 -0.0000 -0.0000 -2.5963 1.7053 2.2018 -7.6969 -0.0000 -0.0000 -3.4804 -17.0367 3.5584 -1.7356 -0.0000 -0.0000
 -0.8429 32.7611 -10.8721 14.3307 -0.9339 -1.7907 -18.8065 -5.5531 -0.3674 12.3711 -3.3612 0.4608 32.5152 33.5269 19.4833 -74.2026 -3.8791 -29.2265 3.2087 0.0000 6.6420 0.3674 -4.0047 5.2461 33.1476 -0.0000 26.2537 -5.8413 -4.8252 -31.2293 -20.9921 0.7488 38.1632 0.7010 -0.0000 10.2319 -0.0382 2.3336 0.9381 32.8623 0.0000 -24.3270 -5.1722 -1.9649 3.2626 -5.2474 -0.0000 0.0000 -1.6545 14.7027 -15.2772 -7.6264 0.0000 -0.0000 -2.6270 1.6956 2.1714 -7.7101 0.0000 0.0000 -3.5332 -17.0494 3.5304 -1.6758 0.0000 0.0000
 -0.8389 32.7585 -10.8829 14.3541 -0.8979 -1.7827 -18.7970 -5.5840 -0.3830 12.3868 -3.3756 0.4515 32.5325 33.5271 19.4640 -74.1551 -3.9132 -29.2506 3.1441 0.0000 6.6074 0.3627 -4.0017 5.1836 33.1476 -0.0000 26.2537 -5.8470 -4.8245 -31.2343 -20.9490 0.7709 38.1886 0.7342 -0.0000 10.1734 -0.0420 2.3781 1.0127 32.8623 0.0000 -24.3270 -5.2079 -1.9852 3.2503 -5.2587 -0.0000 0.0000 -1.6569 14.6466 -15.2537 -7.6898 -0.0000 0.0000 -2.6702 1.6583 2.1548 -7.6931 -0.0000 -0.0000 -3.5885 -17.0455 3.5379 -1.6737 0.0000 -0.0000
 -0.8348 32.7568 -10.8932 14.3750 -0.8613 -1.7838 -18.7897 -5.5951 -0.3862 12.4156 -3.4059 0.4313 32.5713 33.5229 19.4448 -74.1669 -3.9377 -29.2978 3.0997 0.0000 6.5883 0.3616 -4.0086 5.1587 33.1476 -0.0000 26.2537 -5.8193 -4.8590 -31.2359 -20.9835 0.7583 38.2096 0.7534 -0.0000 10.2139 -0.0382 2.4136 0.9080 32.8623 0.0000 -24.3270 -5.2383 -2.0157 3.2402 -5.2788 0.0000 0.0000 -1.6511 14.6416 -15.2409 -7.6359 -0.0000 -0.0000 -2.7035 1.6352 2.1475 -7.6929 0.0000 0.0000 -3.6152 -17.0473 3.5020 -1.6590 -0.0000 -0.0000
 -0.8318 32.7562 -10.9048 14.3995 -0.8329 -1.7917 -18.7809 -5.6029 -0.3826 12.4401 -3.4105 0.4211 32.5887 33.5158 19.4386 -74.1676 -3.9556 -29.3494 3.0780 0.0000 6.5684 0.3789 -4.1201 5.2587 33.1476 -0.0000 26.2537 -5.8058 -4.8787 -31.2197 -20.9781 0.7646 38.2067 0.7694 -0.0000 10.2741 -0.0328 2.3814 0.7898 32.8623 0.0000 -24.3270 -5.2822 -2.0233 3.2405 -5.2888 0.0000 0.0000 -1.6461 14.6209 -15.2461 -7.5861 0.0000 -0.0000 -2.7474 1.6462 2.1460 -7.6839 -0.0000 -0.0000 -3.6554 -17.0786 3.4731 -1.5770 -0.0000 0.0000
 -0.8278 32.7564 -10.9152 14.4141 -0.8147 -1.7909 -18.7650 -5.6080 -0.3811 12.4662 -3.4239 0.3949 32.5911 33.4840 19.4357 -74.1647 -3.9366 -29.3650 3.0520 0.0000 6.5609 0.3770 -4.1284 5.2220 33.1476 -0.0000 26.2537 -5.7803 -4.8965 -31.2248 -20.9817 0.7551 38.2383 0.7981 -0.0000 10.3035 -0.0322 2.3968 0.7693 32.8623 0.0000 -24.3270 -5.3119 -2.0333 3.2306 -5.2997 -0.0000 -0.0000 -1.6411 14.6041 -15.2079 -7.6149 0.0000 0.0000 -2.7906 1.6294 2.1356 -7.6551 0.0000 0.0000 -3.6720 -17.0643 3.4699 -1.5919 0.0000 -0.0000
 -0.8246 32.7575 -10.9265 14.4355 -0.7863 -1.8016 -18.7556 -5.6290 -0.3729 12.5002 -3.4248 0.3795 32.5999 33.4760 19.4388 -74.1553 -3.9214 -29.4169 3.0421 0.0000 6.5750 0.3830 -4.1410 5.2890 33.1476 -0.0000 26.2537 -5.7723 -4.8970 -31.2183 -20.9937 0.7300 38.2515 0.8098 -0.0000 10.3424 -0.0334 2.5326 0.7557 32.8623 0.0000 -24.3270 -5.3461 -2.0707 3.2332 -5.3194 -0.0000 -0.0000 -1.6118 14.6119 -15.2050 -7.5923 -0.0000 0.0000 -2.8354 1.6169 2.1350 -7.6401 -0.0000 -0.0000 -3.6735 -17.0642 3.5031 -1.6236 0.0000 -0.0000
 -0.8219 32.7589 -10.9367 14.4353 -0.7678 -1.8063 -18.7229 -5.6309 -0.3729 12.5276 -3.4145 0.3773 32.5889 33.4514 19.4517 -74.0859 -3.9399 -29.4560 3.0478 0.0000 6.5651 0.3678 -3.9978 5.2606 33.1476 -0.0000 26.2537 -5.7644 -4.9018 -31.2070 -20.9702 0.7339 38.2674 0.8151 -0.0000 10.3698 -0.0348 2.5049 0.7958 32.8623 0.0000 -24.3270 -5.3688 -2.0419 3.2284 -5.3218 -0.0000 0.0000 -1.5908 14.5779 -15.2238 -7.5346 0.0000 0.0000 -2.8565 1.6211 2.1297 -7.6258 -0.0000 0.0000 -3.6829 -17.0831 3.5082 -1.5794 -0.0000 0.0000
 -0.8188 32.7607 -10.9474 14.4315 -0.7553 -1.8080 -18.6857 -5.6401 -0.3718 12.5542 -3.3934 0.3648 32.6186 33.4475 19.4465 -74.0677 -3.9333 -29.4960 3.0602 0.0000 6.5481 0.3471 -3.9568 5.0178 33.1476 -0.0000 26.2537 -5.7475 -4.8924 -31.2054 -20.9579 0.7291 38.2935 0.8102 -0.0000 10.3295 -0.0379 2.5113 0.8653 32.8623 0.0000 -24.3270 -5.3849 -2.0440 3.2233 -5.3260 0.0000 -0.0000 -1.5648 14.5783 -15.2588 -7.6060 0.0000 -0.0000 -2.8878 1.6102 2.1229 -7.5877 -0.0000 0.0000 -3.7060 -16.9971 3.5316 -1.4507 0.0000 -0.0000
 -0.8157 32.7634 -10.9589 14.4249 -0.7310 -1.8111 -18.6409 -5.6566 -0.3720 12.5758 -3.3773 0.3551 32.6261 33.4411 19.4513 -74.0589 -3.8999 -29.5440 3.0615 0.0000 6.6387 0.3824 -4.2002 5.2063 33.1476 -0.0000 26.2537 -5.7414 -4.8770 -31.1936 -20.9540 0.7128 38.3002 0.7933 -0.0000 10.3839 -0.0336 2.5492 0.7551 32.8623 0.0000 -24.3270 -5.4082 -2.0383 3.2151 -5.3179 -0.0000 0.0000 -1.5366 14.5505 -15.2384 -7.5593 -0.0000 0.0000 -2.9127 1.5949 2.1161 -7.5586 0.0000 0.0000 -3.6996 -16.9920 3.5404 -1.4256 0.0000 -0.0000
